<?xml version="1.0" standalone="no"?>
<!DOCTYPE svg PUBLIC "-//W3C//DTD SVG 20010904//EN"
 "http://www.w3.org/TR/2001/REC-SVG-20010904/DTD/svg10.dtd">
<svg version="1.0" xmlns="http://www.w3.org/2000/svg"
 width="502.000000pt" height="502.000000pt" viewBox="0 0 502.000000 502.000000"
 preserveAspectRatio="xMidYMid meet">
<metadata>
Created by potrace 1.11, written by Peter Selinger 2001-2013
</metadata>
<g transform="translate(0.000000,502.000000) scale(0.100000,-0.100000)"
fill="#000000" stroke="none">
<path d="M3367 4784 c-1 -2 -24 -5 -50 -8 -26 -2 -64 -13 -85 -24 -21 -11 -58
-23 -82 -27 -145 -24 -230 -75 -230 -136 0 -104 101 -138 262 -89 150 46 192
51 333 35 39 -4 94 -8 123 -10 29 -2 55 -5 58 -8 3 -3 -2 -29 -10 -58 -22 -80
-26 -110 -31 -264 -8 -223 -14 -336 -20 -390 -9 -74 -14 -162 -20 -335 -3 -85
-7 -193 -10 -240 -3 -47 -8 -128 -11 -180 -3 -52 -7 -106 -8 -120 -2 -29 8
-28 -216 -31 -158 -2 -251 4 -272 17 -15 10 -420 12 -479 3 -26 -4 -93 -10
-149 -14 -56 -4 -122 -12 -145 -19 -23 -7 -62 -12 -86 -10 -118 9 -188 -93
-132 -189 46 -76 99 -88 258 -53 39 8 115 18 170 22 143 11 549 10 620 -1 73
-11 121 -11 295 0 165 10 165 10 207 -10 34 -16 133 -22 153 -10 10 6 168 23
270 29 30 2 66 -1 79 -6 13 -5 40 -11 60 -14 20 -3 52 -7 71 -10 124 -19 210
7 251 73 43 70 18 151 -58 184 -25 11 -48 18 -50 15 -2 -2 -23 2 -46 8 -51 15
-112 20 -277 20 -118 1 -162 -3 -237 -19 l-31 -7 4 73 c6 101 11 204 18 399
10 244 17 351 31 455 3 22 8 121 11 220 6 230 10 288 28 352 15 55 49 112 69
114 31 4 153 8 262 10 132 2 180 -4 251 -31 52 -19 102 -13 138 18 19 18 40
59 39 80 0 6 -1 23 -2 37 0 13 -14 40 -31 58 -32 37 -115 69 -225 86 -67 10
-414 6 -509 -5 -77 -10 -329 -10 -421 0 -109 12 -134 13 -138 10z"/>
<path d="M1205 4762 c-2 -2 -133 -6 -292 -8 -437 -7 -526 -11 -553 -22 -33
-13 -69 -52 -73 -80 -2 -12 -6 -24 -8 -27 -3 -3 0 -34 6 -70 7 -36 10 -65 8
-65 -3 0 0 -6 6 -14 7 -8 14 -22 16 -32 2 -11 9 -39 15 -64 11 -42 10 -117 -5
-525 -4 -88 -11 -200 -19 -300 -8 -82 -17 -205 -22 -280 -2 -38 -6 -104 -9
-145 -3 -41 -6 -181 -6 -310 -1 -246 8 -318 44 -361 20 -22 73 -21 88 3 7 11
51 131 54 148 1 3 4 19 8 35 3 17 9 48 12 70 3 23 7 51 10 64 2 13 7 71 10
129 13 230 21 334 40 512 2 19 7 80 10 135 4 55 9 102 12 105 2 2 122 6 266 7
376 3 490 8 495 22 2 6 10 11 17 11 7 0 20 16 30 36 30 64 3 140 -60 164 -29
11 -161 15 -205 5 -14 -3 -63 -7 -110 -10 -47 -3 -110 -8 -140 -11 -30 -2 -83
-7 -118 -9 -35 -3 -67 -7 -71 -9 -4 -3 -28 -8 -52 -11 l-45 -6 3 43 c2 24 5
147 6 273 2 213 0 251 -19 313 -5 17 -2 22 12 23 11 0 39 2 64 4 62 4 669 17
755 16 39 0 87 -3 107 -6 82 -13 95 -15 133 -24 70 -18 115 -22 345 -26 124
-2 239 -7 255 -11 17 -3 41 -7 55 -8 14 -1 44 -8 68 -15 41 -12 54 -11 132 5
98 19 151 102 114 180 -29 61 -45 68 -157 71 -56 2 -115 5 -132 7 -92 12 -182
17 -380 21 -151 2 -237 8 -275 19 -30 8 -89 18 -130 22 -77 7 -309 12 -315 6z"/>
<path d="M4475 2590 c-42 -9 -77 -34 -98 -70 -10 -16 -16 -30 -14 -30 3 0 -1
-21 -9 -46 -7 -25 -13 -49 -13 -52 1 -4 1 -9 0 -12 -1 -3 -4 -36 -6 -75 -2
-38 -7 -106 -11 -150 -8 -96 -10 -328 -3 -442 3 -46 3 -83 0 -83 -3 1 -35 7
-71 15 -61 13 -225 13 -290 0 -59 -12 -136 -20 -275 -30 -93 -7 -153 -14 -203
-26 -26 -6 -63 -12 -82 -14 -19 -2 -55 -7 -80 -11 -92 -15 -420 3 -441 24 -4
4 -10 52 -14 107 -3 55 -8 114 -10 130 -3 17 -7 59 -10 95 -3 36 -7 76 -10 89
-2 14 -9 59 -15 100 -23 165 -34 205 -65 225 -35 23 -79 20 -112 -8 -25 -22
-28 -31 -27 -83 0 -51 8 -184 20 -353 2 -30 6 -118 8 -195 5 -138 12 -261 22
-400 2 -38 7 -106 9 -150 3 -44 8 -118 10 -165 3 -47 8 -148 10 -225 6 -165 8
-182 29 -223 22 -43 58 -64 105 -64 50 1 85 23 106 68 14 30 15 51 9 122 -8
93 -8 292 0 382 15 165 17 199 17 241 l-1 45 53 -5 c114 -12 420 -3 446 13 6
4 120 16 196 21 139 8 254 19 315 30 113 20 174 21 245 5 28 -6 68 -13 90 -16
22 -4 41 -7 43 -9 2 -1 5 -175 7 -386 7 -583 8 -608 29 -652 40 -82 151 -100
211 -34 17 18 32 39 35 47 2 8 3 96 1 195 -7 358 -5 1344 3 1520 12 266 10
417 -7 458 -25 59 -88 91 -152 77z"/>
<path d="M1475 2422 c-1 -2 -38 -6 -81 -8 -68 -5 -233 -48 -319 -83 -63 -26
-84 -33 -167 -57 -51 -14 -128 -44 -172 -66 -45 -23 -94 -48 -111 -56 -189
-96 -295 -315 -240 -496 31 -102 118 -180 253 -227 64 -22 219 -51 272 -51 8
0 58 -7 111 -14 53 -8 136 -16 186 -19 50 -3 101 -8 114 -10 13 -3 44 -8 69
-11 74 -10 400 -93 475 -121 74 -28 133 -79 240 -206 70 -83 75 -92 79 -134 5
-69 -21 -91 -257 -211 -104 -53 -119 -55 -242 -36 -22 3 -84 7 -137 9 -106 3
-171 -10 -333 -67 -74 -26 -108 -32 -190 -34 -55 -2 -143 -6 -195 -10 -146
-10 -177 -6 -254 34 -113 59 -212 17 -221 -95 -7 -89 45 -147 167 -184 112
-34 128 -35 373 -25 264 11 238 6 557 106 28 9 154 6 218 -5 79 -13 227 -6
276 14 101 39 303 152 312 174 2 4 8 7 13 7 5 0 22 11 37 24 15 14 37 33 48
43 24 21 69 108 79 154 11 51 7 138 -10 198 -16 52 -61 138 -88 166 -7 7 -37
41 -67 76 -129 149 -183 192 -294 236 -59 23 -177 58 -226 67 -14 2 -74 16
-135 31 -122 30 -123 30 -180 39 -58 8 -131 15 -221 21 -43 3 -92 8 -108 11
-38 8 -72 12 -186 19 -52 3 -102 7 -110 9 -94 19 -190 66 -191 94 0 9 -2 25
-4 35 -5 28 29 101 62 131 44 42 188 110 313 150 63 20 122 40 130 43 8 4 17
7 20 8 3 1 12 5 20 8 36 15 177 59 200 62 14 2 45 6 70 9 25 3 56 9 70 12 14
3 70 7 125 9 97 2 182 16 236 36 26 10 47 42 43 67 -1 6 -2 16 -3 21 -3 25
-50 50 -121 66 -3 0 -35 11 -72 24 -53 17 -84 22 -148 19 -45 -2 -83 -4 -85
-6z"/>
</g>
</svg>
